<svg viewBox="0 0 35 35" fill="none" xmlns="http://www.w3.org/2000/svg"><path d="M17.5 2.92a14.58 14.58 0 0 0-4.6 28.43c.72.12.95-.33.95-.73v-2.46c-4.04.88-4.9-1.95-4.9-1.95-.67-1.7-1.61-2.15-1.61-2.15-1.33-.9.1-.87.1-.87 1.46.1 2.23 1.5 2.23 1.5 1.27 2.22 3.41 1.56 4.24 1.21a3.1 3.1 0 0 1 .92-1.95c-3.24-.37-6.63-1.62-6.63-7.18 0-1.62.55-2.92 1.5-3.95a5.22 5.22 0 0 1 .14-3.85s1.23-.4 4.01 1.49a13.74 13.74 0 0 1 7.3 0c2.78-1.89 4-1.5 4-1.5.8 1.98.3 3.5.15 3.86a5.65 5.65 0 0 1 1.5 3.95c0 5.57-3.4 6.8-6.66 7.16.52.45 1 1.34 1 2.7v4c0 .39.24.86.98.72a14.62 14.62 0 0 0 5.7-24.16 14.58 14.58 0 0 0-10.32-4.27Z" fill="#111"/></svg>