<svg viewBox="0 0 35 35" fill="none" xmlns="http://www.w3.org/2000/svg"><path d="m17 7.16 2.74-2.73a7.66 7.66 0 1 1 10.83 10.83l-5.47 5.47a7.66 7.66 0 0 1-10.83 0 1.64 1.64 0 0 1 2.32-2.32 4.37 4.37 0 0 0 6.2 0l5.46-5.47a4.38 4.38 0 0 0-6.19-6.2l-2.73 2.74a1.64 1.64 0 0 1-2.32-2.32Zm-10.25 21.1a4.37 4.37 0 0 0 6.19 0l2.73-2.74a1.64 1.64 0 0 1 2.32 2.32l-2.73 2.73a7.66 7.66 0 1 1-10.83-10.83l5.47-5.47a7.66 7.66 0 0 1 10.83 0 1.64 1.64 0 0 1-2.32 2.32 4.37 4.37 0 0 0-6.2 0l-5.46 5.47a4.37 4.37 0 0 0 0 6.2Z" fill="#111"/></svg>