<svg viewBox="0 0 56 30" fill="none" xmlns="http://www.w3.org/2000/svg"><g clip-path="url(#a)"><path d="M12.34 4.21v-.94h6.54v.94h-2.74v7.79h-1.06v-7.79h-2.74Zm8.17 7.79v-8.73h5.27v.94h-4.2v2.95h3.93v.94h-3.94v2.96h4.28v.94h-5.34Zm14.2-6h-1.06a2.2 2.2 0 0 0-.89-1.38 2.39 2.39 0 0 0-.73-.36 2.91 2.91 0 0 0-2.27.28c-.43.27-.76.66-1.02 1.18a4.4 4.4 0 0 0-.37 1.92c0 .75.12 1.39.37 1.91.26.52.6.91 1.02 1.18a2.91 2.91 0 0 0 2.27.28 2.25 2.25 0 0 0 1.62-1.74h1.06a3.5 3.5 0 0 1-.44 1.2 3.27 3.27 0 0 1-1.83 1.46 3.92 3.92 0 0 1-3.23-.36 3.74 3.74 0 0 1-1.37-1.55 5.32 5.32 0 0 1-.5-2.38c0-.92.17-1.72.5-2.39.34-.67.8-1.19 1.37-1.55a3.92 3.92 0 0 1 3.23-.35 3.38 3.38 0 0 1 1.83 1.45c.21.35.36.75.44 1.2Zm1.7 6v-8.73h1.06v3.89h4.66v-3.89h1.05v8.73h-1.05v-3.9h-4.66v3.9h-1.05Zm-21.88 8.45a1.34 1.34 0 0 0-.62-1 2.39 2.39 0 0 0-1.34-.36c-.38 0-.72.06-1.01.19-.29.12-.51.3-.67.51a1.24 1.24 0 0 0-.08 1.35c.12.17.26.3.44.41.18.11.36.2.55.27.2.07.37.13.54.17l.88.24c.23.06.48.14.76.24.28.11.55.25.8.43a1.99 1.99 0 0 1 .9 1.73c0 .47-.13.9-.37 1.28-.25.38-.6.68-1.08.9-.47.23-1.04.34-1.7.34a4 4 0 0 1-1.63-.3 2.4 2.4 0 0 1-1.51-2.1h1.09c.03.33.14.6.33.82.2.21.44.37.74.48a3.08 3.08 0 0 0 2.06-.05c.32-.13.58-.32.76-.55.19-.24.28-.52.28-.84a1 1 0 0 0-.24-.7 1.78 1.78 0 0 0-.64-.45 6.7 6.7 0 0 0-.85-.3l-1.08-.3a4 4 0 0 1-1.62-.84c-.4-.37-.6-.84-.6-1.43 0-.49.14-.91.4-1.28a2.7 2.7 0 0 1 1.08-.85c.45-.2.95-.3 1.5-.3.57 0 1.07.1 1.5.3.45.2.8.47 1.05.81.26.35.4.74.4 1.18h-1.02Zm2.4-1.24v-.94h6.55v.94h-2.74v7.79h-1.06v-7.79h-2.74Zm7.52 7.79h-1.1l3.2-8.73h1.09l3.2 8.73h-1.1l-2.61-7.35h-.07l-2.6 7.35Zm.41-3.4h4.47v.93h-4.47v-.94Zm13.96-2.6h-1.06a2.2 2.2 0 0 0-.9-1.38 2.39 2.39 0 0 0-.72-.36 2.9 2.9 0 0 0-2.27.28c-.43.27-.77.66-1.02 1.18a4.4 4.4 0 0 0-.38 1.92c0 .75.13 1.39.38 1.91s.6.91 1.02 1.18a2.9 2.9 0 0 0 2.27.28 2.25 2.25 0 0 0 1.62-1.74h1.06a3.5 3.5 0 0 1-.44 1.2 3.27 3.27 0 0 1-1.84 1.46 3.92 3.92 0 0 1-3.22-.36 3.74 3.74 0 0 1-1.37-1.55 5.32 5.32 0 0 1-.5-2.38c0-.92.17-1.72.5-2.39a3.66 3.66 0 0 1 3.35-2.1c.44 0 .86.07 1.24.2a3.38 3.38 0 0 1 1.84 1.45c.21.35.36.75.44 1.2Zm1.7 6v-8.73h1.06v4.33h.1l3.92-4.33h1.38l-3.66 3.94 3.66 4.79h-1.27l-3.04-4.06-1.09 1.23v2.83h-1.06Z" fill="#000"/></g><defs><clipPath id="a"><rect width="56" height="30" rx="10" fill="#fff"/></clipPath></defs></svg>